# Blender v2.79 (sub 0) OBJ File: 'blender_cube.blend1'
# www.blender.org
mtllib cube_mirror_test.mtl
o Cube.001
v 1.635896 -0.798451 5.050941
v 1.635896 1.201549 5.050941
v 1.635896 -0.798451 3.050941
v 1.635896 1.201549 3.050941
v 3.635896 -0.798451 5.050941
v 3.635896 1.201549 5.050941
v 3.635896 -0.798451 3.050941
v 3.635896 1.201549 3.050941
vn -1.0000 0.0000 0.0000
vn 0.0000 0.0000 -1.0000
vn 1.0000 0.0000 0.0000
vn 0.0000 0.0000 1.0000
vn 0.0000 -1.0000 0.0000
vn 0.0000 1.0000 0.0000
usemtl Glass
s off
f 2//1 3//1 1//1
f 4//2 7//2 3//2
f 8//3 5//3 7//3
f 6//4 1//4 5//4
f 7//5 1//5 3//5
f 4//6 6//6 8//6
f 2//1 4//1 3//1
f 4//2 8//2 7//2
f 8//3 6//3 5//3
f 6//4 2//4 1//4
f 7//5 5//5 1//5
f 4//6 2//6 6//6
o Cube
v 4.397979 -1.232260 -1.557101
v 10.903522 -7.737801 1.557102
v -5.221765 -7.737801 1.557100
v 1.283776 -1.232260 -1.557102
v 4.397979 1.881943 -1.557101
v 10.903515 8.387484 1.557107
v -5.221768 8.387484 1.557099
v 1.283776 1.881943 -1.557102
vt 0.582219 0.715839
vt 0.362753 0.935304
vt 0.362753 0.715839
vt 0.362753 0.496373
vt 0.582219 0.276907
vt 0.362753 0.057441
vt 0.582219 0.057441
vt 0.582219 0.935304
vt 0.582219 0.496373
vt 0.362753 0.276907
vt 0.143287 0.935304
vt 0.143287 0.715839
vt 0.801684 0.715839
vt 0.801684 0.935304
vn 0.0000 -0.4318 -0.9020
vn 0.4318 -0.0000 -0.9020
vn -0.4318 -0.0000 -0.9020
vn 0.0000 0.4318 -0.9020
vn 0.0000 0.0000 -1.0000
vn -0.0000 -0.0000 1.0000
usemtl Mirror
f 14/13/12 11/8/12 10/1/12
f 14/13/12 15/14/12 11/8/12
