# Blender v2.79 (sub 0) OBJ File: 'blender_cube.blend1'
# www.blender.org
mtllib cube_mirror_test.mtl
o Cube.001
v 1.635896 -0.798451 5.050941
v 1.635896 1.201549 5.050941
v 1.635896 -0.798451 3.050941
v 1.635896 1.201549 3.050941
v 3.635896 -0.798451 5.050941
v 3.635896 1.201549 5.050941
v 3.635896 -0.798451 3.050941
v 3.635896 1.201549 3.050941
vn -1.0000 0.0000 0.0000
vn 0.0000 0.0000 -1.0000
vn 1.0000 0.0000 0.0000
vn 0.0000 0.0000 1.0000
vn 0.0000 -1.0000 0.0000
vn 0.0000 1.0000 0.0000
usemtl Glass
s off
f 2//1 3//1 1//1
f 4//2 7//2 3//2
f 8//3 5//3 7//3
f 6//4 1//4 5//4
f 7//5 1//5 3//5
f 4//6 6//6 8//6
f 2//1 4//1 3//1
f 4//2 8//2 7//2
f 8//3 6//3 5//3
f 6//4 2//4 1//4
f 7//5 5//5 1//5
f 4//6 2//6 6//6
o Cube
v 1.000000 -0.675159 -1.000000
v 2.457515 -2.132673 1.000000
v -2.457514 -2.132673 1.000000
v -1.000000 -0.675159 -1.000000
v 1.000000 1.324841 -0.999999
v 2.457513 2.782356 1.000002
v -2.457515 2.782356 0.999999
v -1.000000 1.324841 -1.000000
vt 0.362753 0.715839
vt 0.582219 0.935304
vt 0.362753 0.935304
vt 0.362753 0.496373
vt 0.582219 0.715839
vt 0.582219 0.057441
vt 0.362753 0.276907
vt 0.362753 0.057441
vt 0.582219 0.496373
vt 0.582219 0.276907
vt 0.143287 0.935304
vt 0.143287 0.715839
vt 0.801684 0.715839
vt 0.801684 0.935304
vn 0.0000 -0.8082 -0.5890
vn 0.8082 -0.0000 -0.5890
vn -0.8082 -0.0000 -0.5890
vn 0.0000 0.8082 -0.5890
vn 0.0000 0.0000 -1.0000
vn -0.0000 -0.0000 1.0000
usemtl Red
s off
f 9/1/7 11/2/7 12/3/7
f 13/4/8 10/5/8 9/1/8
f 11/6/9 16/7/9 12/8/9
f 9/1/7 10/5/7 11/2/7
f 13/4/8 14/9/8 10/5/8
f 11/6/9 15/10/9 16/7/9
usemtl Blue
f 16/7/10 14/9/10 13/4/10
f 16/7/10 15/10/10 14/9/10
usemtl Green
f 9/1/11 16/11/11 13/12/11
f 9/1/11 12/3/11 16/11/11
usemtl Mirror
f 14/13/12 11/2/12 10/5/12
f 14/13/12 15/14/12 11/2/12
